<svg
  xmlns="http://www.w3.org/2000/svg"
  viewBox="0 0 24 24"
  fill="none"
  stroke="currentColor"
  stroke-width="2"
  stroke-linecap="round"
  stroke-linejoin="round"
>
  <path d="M9.5 4a3 3 0 0 0-5.5 1.7A3.5 3.5 0 0 0 3.5 12 3.5 3.5 0 0 0 6 18.7 3 3 0 0 0 11 21V3a3 3 0 0 0-1.5 1z"/>
  <path d="M14.5 4A3 3 0 0 1 20 5.7a3.5 3.5 0 0 1 .5 6.3 3.5 3.5 0 0 1-2.5 6.7A3 3 0 0 1 13 21V3a3 3 0 0 1 1.5 1z"/>
  <path d="M6 8.5A2.5 2.5 0 0 1 8.5 11"/>
  <path d="M18 8.5a2.5 2.5 0 0 0-2.5 2.5"/>
  <path d="M6.5 15A2.5 2.5 0 0 0 9 17.5"/>
  <path d="M17.5 15a2.5 2.5 0 0 1-2.5 2.5"/>
</svg>
